<?xml version="1.0" encoding="UTF-8"?>
<svg id="Capa_1" data-name="Capa 1" xmlns="http://www.w3.org/2000/svg" viewBox="0 0 60 60">
  <defs>
    <style>
      .cls-1 {
        fill: #fff;
      }
    </style>
  </defs>
  <g>
    <path class="cls-1" d="M18.61,53.06l-1.02,1.02c-.62.62-1.62.62-2.24,0l-7.87-7.87c-.62-.62-.62-1.62,0-2.24l1.02-1.02,10.11,10.11ZM7.61,44.09c-.55.55-.55,1.45,0,2l7.87,7.87c.55.55,1.45.55,2,0l.9-.9-9.87-9.87-.9.9Z"/>
    <path class="cls-1" d="M16.48,55.18c-.57,0-1.14-.22-1.58-.65l-7.87-7.87c-.87-.87-.87-2.28,0-3.15l1.02-1.02c.25-.25.66-.25.92,0l10.11,10.11c.12.12.19.29.19.46s-.07.34-.19.46l-1.02,1.02c-.43.43-1.01.65-1.58.65ZM8.51,44.1l-.44.44c-.3.3-.3.79,0,1.09l7.87,7.87c.14.14.34.22.54.22s.4-.08.54-.22l.44-.44-8.95-8.95Z"/>
  </g>
  <g>
    <path class="cls-1" d="M18.6,37.15l-7.36,7.36c-.39.39-1.02.39-1.4,0l-1.27-1.27c-.39-.39-.39-1.02,0-1.4l7.36-7.36,2.68,2.68ZM8.68,41.95c-.32.32-.32.85,0,1.17l1.27,1.27c.32.32.85.32,1.17,0l7.24-7.24-2.44-2.44-7.24,7.24Z"/>
    <path class="cls-1" d="M10.54,45.45h0c-.44,0-.85-.17-1.16-.48l-1.27-1.27c-.31-.31-.48-.72-.48-1.16s.17-.85.48-1.16l7.36-7.36c.25-.25.66-.25.92,0l2.68,2.68c.12.12.19.29.19.46s-.07.34-.19.46l-7.36,7.36c-.31.31-.72.48-1.16.48ZM15.92,35.63l-6.79,6.78c-.07.07-.07.18,0,.25l1.27,1.27c.07.07.18.07.25,0l6.78-6.79-1.53-1.53Z"/>
  </g>
  <g>
    <path class="cls-1" d="M27.26,45.82l-7.36,7.36c-.39.39-1.02.39-1.4,0l-1.27-1.27c-.39-.39-.39-1.02,0-1.4l7.36-7.36,2.68,2.68ZM17.34,50.62c-.32.32-.32.85,0,1.17l1.27,1.27c.32.32.85.32,1.17,0l7.24-7.24-2.44-2.44-7.24,7.24Z"/>
    <path class="cls-1" d="M19.2,54.11h0c-.44,0-.85-.17-1.16-.48l-1.27-1.27c-.64-.64-.64-1.68,0-2.32l7.36-7.36c.24-.24.67-.24.92,0l2.68,2.68c.12.12.19.29.19.46s-.07.34-.19.46l-7.36,7.36c-.31.31-.72.48-1.16.48ZM24.59,44.29l-6.79,6.78s-.05.09-.05.13,0,.08.05.13l1.27,1.27c.07.07.18.07.25,0l6.78-6.79-1.53-1.53Z"/>
  </g>
  <g>
    <path class="cls-1" d="M24.2,42.75l-7.36,7.36c-.39.39-1.02.39-1.4,0l-3.71-3.71c-.39-.39-.39-1.02,0-1.4l7.36-7.36,5.11,5.11ZM11.85,45.12c-.32.32-.32.85,0,1.17l3.71,3.71c.32.32.85.32,1.17,0l7.24-7.24-4.88-4.88-7.24,7.24Z"/>
    <path class="cls-1" d="M16.14,51.05c-.42,0-.84-.16-1.16-.48l-3.71-3.71c-.64-.64-.64-1.68,0-2.32l7.36-7.36c.25-.25.66-.25.92,0l5.11,5.11c.25.25.25.66,0,.92l-7.36,7.36c-.32.32-.74.48-1.16.48ZM19.09,38.79l-6.79,6.79c-.07.07-.07.18,0,.25l3.71,3.71s.09.05.13.05.08,0,.13-.05l6.79-6.79-3.96-3.96Z"/>
  </g>
  <g>
    <polygon class="cls-1" points="24.26 42.81 24.13 42.92 17.6 35.13 17.73 35.02 24.26 42.81"/>
    <path class="cls-1" d="M24.13,43.57s-.04,0-.06,0c-.17-.01-.33-.1-.44-.23l-6.53-7.79c-.23-.27-.19-.68.08-.91l.13-.11c.13-.11.3-.17.47-.15.17.01.33.1.44.23l6.53,7.79c.23.27.19.68-.08.91l-.13.11c-.12.1-.26.15-.42.15Z"/>
  </g>
  <g>
    <rect class="cls-1" x="22.44" y="32.8" width=".17" height="12.9" transform="translate(-19.79 23.21) rotate(-39.4)"/>
    <path class="cls-1" d="M26.55,44.93c-.19,0-.37-.08-.5-.24l-8.2-9.96c-.23-.28-.19-.68.09-.91l.13-.11c.13-.11.3-.16.47-.14.17.02.33.1.44.23l8.2,9.96c.11.13.16.3.14.47-.02.17-.1.33-.23.44l-.13.11c-.12.1-.27.15-.41.15Z"/>
  </g>
  <g>
    <polygon class="cls-1" points="27.38 43.48 27.25 43.58 20.56 35.34 20.69 35.24 27.38 43.48"/>
    <path class="cls-1" d="M27.25,44.23s-.04,0-.07,0c-.17-.02-.33-.1-.44-.24l-6.69-8.24c-.23-.28-.18-.68.09-.91l.13-.1c.13-.11.3-.16.47-.14.17.02.33.1.44.24l6.69,8.24c.23.28.18.68-.09.91l-.13.11c-.12.09-.26.15-.41.15Z"/>
  </g>
  <g>
    <path class="cls-1" d="M31.22,40.45l-2.78,2.78-10-10,2.78-2.78,10,10ZM28.44,42.99l2.54-2.54-9.77-9.77-2.54,2.54,9.77,9.77Z"/>
    <path class="cls-1" d="M28.44,43.87c-.17,0-.33-.06-.46-.19l-10-10c-.25-.25-.25-.66,0-.92l2.78-2.78c.25-.25.66-.25.92,0l10,10c.25.25.25.66,0,.92l-2.78,2.78c-.13.13-.29.19-.46.19ZM19.59,33.22l8.85,8.85,1.63-1.63-8.85-8.85-1.63,1.63Z"/>
  </g>
  <g>
    <rect class="cls-1" x="17.09" y="35.08" width="2.83" height=".17" transform="translate(-19.45 23.38) rotate(-45)"/>
    <path class="cls-1" d="M17.56,36.88c-.17,0-.34-.07-.46-.19l-.12-.12c-.25-.25-.25-.66,0-.92l2-2c.12-.12.29-.19.46-.19h0c.17,0,.34.07.46.19l.12.12c.25.25.25.66,0,.91l-2,2c-.12.12-.29.19-.46.19Z"/>
  </g>
  <g>
    <rect class="cls-1" x="24.99" y="42.99" width="2.83" height=".17" transform="translate(-22.72 31.29) rotate(-45)"/>
    <path class="cls-1" d="M25.47,44.78c-.17,0-.33-.06-.46-.19l-.12-.12c-.12-.12-.19-.29-.19-.46s.07-.34.19-.46l2-2c.25-.25.66-.25.91,0l.12.12c.12.12.19.29.19.46s-.07.34-.19.46l-2,2c-.13.13-.29.19-.46.19Z"/>
  </g>
  <g>
    <path class="cls-1" d="M45.38,29.04l-3.08,3.1c-.3.3-.8.3-1.1,0l-11.72-11.72c-.3-.3-.3-.8,0-1.1l3.08-3.1,12.82,12.82ZM29.59,19.44c-.24.24-.24.62,0,.86l11.72,11.72c.24.24.62.24.86,0l2.97-2.98-12.59-12.59-2.97,2.98Z"/>
    <path class="cls-1" d="M41.75,33.02c-.36,0-.73-.14-1.01-.42l-11.72-11.73c-.56-.55-.56-1.46,0-2.01l3.08-3.1c.12-.12.29-.19.46-.19h0c.17,0,.34.07.46.19l12.82,12.82c.25.25.25.66,0,.91l-3.08,3.1c-.28.28-.64.42-1.01.42ZM30.07,19.87l11.67,11.67,2.48-2.5-11.67-11.67-2.48,2.5Z"/>
  </g>
  <g>
    <path class="cls-1" d="M39.91,30.62l-9.27,9.22-8.93-8.93,9.27-9.22,8.93,8.93ZM30.63,39.6l9.04-8.98-8.7-8.7-9.04,8.98,8.7,8.7Z"/>
    <path class="cls-1" d="M30.63,40.48c-.17,0-.33-.06-.46-.19l-8.93-8.93c-.12-.12-.19-.29-.19-.46s.07-.34.19-.46l9.27-9.22c.25-.25.66-.25.91,0l8.93,8.93c.12.12.19.29.19.46s-.07.34-.19.46l-9.27,9.22c-.13.13-.29.19-.46.19ZM22.85,30.9l7.78,7.78,8.12-8.07-7.78-7.78-8.12,8.07Z"/>
  </g>
  <g>
    <path class="cls-1" d="M55.38,15.15l-3.23,3.22-8.93-8.93,3.23-3.22,8.93,8.93ZM52.15,18.14l3-2.99-8.7-8.7-3,2.99,8.7,8.7Z"/>
    <path class="cls-1" d="M52.15,19.02c-.17,0-.33-.06-.46-.19l-8.93-8.93c-.12-.12-.19-.29-.19-.46,0-.17.07-.34.19-.46l3.23-3.22c.25-.25.66-.25.91,0l8.93,8.93c.12.12.19.29.19.46,0,.17-.07.34-.19.46l-3.23,3.22c-.13.13-.29.19-.46.19ZM44.37,9.44l7.78,7.78,2.08-2.07-7.78-7.78-2.08,2.07Z"/>
  </g>
  <g>
    <path class="cls-1" d="M50.87,23.57l-5.62,5.62-12.82-12.82,5.62-5.62,12.82,12.82ZM45.25,28.95l5.38-5.38-12.59-12.59-5.38,5.38,12.59,12.59Z"/>
    <path class="cls-1" d="M45.25,29.83c-.17,0-.34-.07-.46-.19l-12.82-12.82c-.12-.12-.19-.29-.19-.46s.07-.34.19-.46l5.62-5.62c.25-.25.66-.25.92,0l12.82,12.82c.25.25.25.66,0,.92l-5.62,5.62c-.12.12-.29.19-.46.19ZM33.58,16.36l11.67,11.67,4.47-4.47-11.67-11.67-4.47,4.47Z"/>
  </g>
  <g>
    <path class="cls-1" d="M53.35,21.09l-2.33,2.33-12.82-12.82,2.33-2.33c.49-.49,1.27-.49,1.76,0l11.06,11.06c.49.49.49,1.27,0,1.76ZM51.02,23.19l2.21-2.21c.42-.42.42-1.1,0-1.52l-11.06-11.06c-.42-.42-1.1-.42-1.52,0l-2.21,2.21,12.59,12.59Z"/>
    <path class="cls-1" d="M51.02,24.07c-.17,0-.34-.07-.46-.19l-12.82-12.82c-.25-.25-.25-.66,0-.92l2.33-2.33c.74-.74,1.94-.74,2.68,0l11.06,11.06c.36.36.55.83.55,1.34s-.2.98-.55,1.34l-2.33,2.33c-.12.12-.29.19-.46.19h0ZM39.35,10.6l11.67,11.67,1.75-1.76c.17-.17.17-.44,0-.61l-11.06-11.06c-.16-.16-.45-.16-.61,0l-1.75,1.76Z"/>
  </g>
  <g>
    <g>
      <path class="cls-1" d="M50.81,23.57l-5.56,5.56-12.76-12.76,5.56-5.56,12.76,12.76ZM45.25,29.01l5.44-5.44-12.65-12.65-5.44,5.44,12.65,12.65Z"/>
      <path class="cls-1" d="M45.25,29.77c-.17,0-.34-.07-.46-.19l-12.76-12.76c-.25-.25-.25-.66,0-.92l5.56-5.56c.24-.24.67-.24.92,0l12.76,12.76c.12.12.19.29.19.46s-.07.34-.19.46l-5.56,5.56c-.12.12-.29.19-.46.19ZM33.52,16.36l11.73,11.73,4.52-4.52-11.73-11.73-4.52,4.52Z"/>
    </g>
    <g>
      <polygon class="cls-1" points="46.94 27.42 43.56 27.42 43.56 27.33 46.94 27.33 46.94 27.42"/>
      <path class="cls-1" d="M46.94,28.07h-3.39c-.17,0-.34-.07-.46-.19-.12-.12-.19-.29-.19-.46v-.08c0-.36.29-.65.65-.65h3.38c.36,0,.65.29.65.65v.08c0,.17-.07.34-.19.46-.12.12-.29.19-.46.19Z"/>
    </g>
    <g>
      <polygon class="cls-1" points="49.61 24.75 49.26 24.74 40.88 24.74 40.88 24.66 41.24 24.66 49.61 24.66 49.61 24.75"/>
      <path class="cls-1" d="M49.61,25.39h-.36s-8.38,0-8.38,0c-.17,0-.34-.07-.46-.19-.12-.12-.19-.29-.19-.46v-.08c0-.36.29-.64.65-.64h.36s8.37,0,8.37,0c.17,0,.34.07.46.19.12.12.19.29.19.46v.08c0,.17-.07.34-.19.46-.12.12-.28.19-.45.19Z"/>
    </g>
    <g>
      <polygon class="cls-1" points="49.21 22.07 38.21 22.07 38.21 21.99 49.21 21.99 49.21 22.07"/>
      <path class="cls-1" d="M49.21,22.72h-11c-.17,0-.34-.07-.46-.19-.12-.12-.19-.29-.19-.46v-.08c0-.36.29-.64.65-.64h11c.36,0,.65.29.65.65v.08c0,.17-.07.34-.19.46s-.29.19-.46.19Z"/>
    </g>
    <g>
      <polygon class="cls-1" points="46.53 19.4 35.54 19.4 35.54 19.31 46.53 19.31 46.53 19.4"/>
      <path class="cls-1" d="M35.54,20.05c-.36,0-.65-.29-.65-.64v-.08c0-.17.07-.34.19-.46.12-.12.29-.19.46-.19h11c.36,0,.65.29.65.65v.08c0,.17-.07.34-.19.46s-.29.19-.46.19h-11Z"/>
    </g>
    <g>
      <polygon class="cls-1" points="43.86 16.72 32.86 16.72 32.86 16.64 43.86 16.64 43.86 16.72"/>
      <path class="cls-1" d="M43.86,17.37h-11c-.17,0-.34-.07-.46-.19s-.19-.29-.19-.46v-.08c0-.36.29-.65.65-.65h11c.17,0,.34.07.46.19s.19.29.19.46v.08c0,.36-.29.65-.65.65Z"/>
    </g>
    <g>
      <polygon class="cls-1" points="41.19 14.05 34.9 14.05 34.9 13.97 35.9 13.97 41.19 13.97 41.19 14.05"/>
      <path class="cls-1" d="M41.19,14.7h-6.29c-.17,0-.34-.07-.46-.19-.12-.12-.19-.29-.19-.46v-.08c0-.17.07-.34.19-.46.12-.12.29-.19.46-.19h1s5.29,0,5.29,0c.17,0,.34.07.46.19s.19.29.19.46v.08c0,.36-.29.65-.65.65Z"/>
    </g>
    <g>
      <polygon class="cls-1" points="38.51 11.38 37.57 11.38 37.57 11.29 38.51 11.29 38.51 11.38"/>
      <path class="cls-1" d="M38.51,12.03h-.94c-.36,0-.65-.29-.65-.65v-.08c0-.17.07-.34.19-.46s.29-.19.46-.19h.94c.36,0,.65.29.65.65v.08c0,.17-.07.34-.19.46s-.29.19-.46.19Z"/>
    </g>
    <g>
      <polygon class="cls-1" points="50.64 23.72 50.56 23.72 50.56 23.42 50.64 23.42 50.64 23.72"/>
      <path class="cls-1" d="M50.64,24.37h-.09c-.36,0-.65-.29-.65-.65v-.3c0-.17.07-.34.19-.46.12-.12.29-.19.46-.19h.09c.36,0,.65.29.65.65v.3c0,.17-.07.34-.19.46-.12.12-.29.19-.46.19Z"/>
    </g>
    <g>
      <polygon class="cls-1" points="47.97 26.39 47.88 26.39 47.88 20.75 47.97 20.75 47.97 26.39"/>
      <path class="cls-1" d="M47.97,27.04h-.08c-.36,0-.65-.29-.65-.65v-5.64c0-.36.29-.65.65-.65h.08s0,0,0,0c.17,0,.34.07.46.19.12.12.19.29.19.46v5.65c0,.17-.07.34-.19.46-.12.12-.29.19-.46.19Z"/>
    </g>
    <g>
      <polygon class="cls-1" points="45.3 29.06 45.21 29.06 45.21 28.71 45.21 18.07 45.29 18.07 45.3 29.06"/>
      <path class="cls-1" d="M45.21,29.71c-.36,0-.64-.29-.65-.64v-.35s0-10.64,0-10.64c0-.36.29-.65.65-.65h.08s0,0,0,0c.17,0,.34.07.46.19.12.12.19.29.19.46v10.99c0,.36-.29.65-.64.65h-.08s0,0,0,0Z"/>
    </g>
    <g>
      <polygon class="cls-1" points="42.62 26.4 42.54 26.4 42.54 26.04 42.54 15.4 42.62 15.4 42.62 26.4"/>
      <path class="cls-1" d="M42.62,27.05h-.09c-.17,0-.34-.07-.46-.19s-.19-.29-.19-.46v-.36s0-10.63,0-10.63c0-.17.07-.34.19-.46.12-.12.29-.19.46-.19h.09c.36,0,.65.29.65.65v11c0,.17-.07.34-.19.46-.12.12-.29.19-.46.19Z"/>
    </g>
    <g>
      <polygon class="cls-1" points="39.95 23.73 39.86 23.73 39.86 12.73 39.95 12.73 39.95 23.73"/>
      <path class="cls-1" d="M39.95,24.37h-.09c-.36,0-.65-.29-.65-.65v-11c0-.17.07-.34.19-.46.12-.12.29-.19.46-.19h.09c.36,0,.65.29.65.65v11c0,.17-.07.34-.19.46-.12.12-.29.19-.46.19Z"/>
    </g>
    <g>
      <polygon class="cls-1" points="37.27 21.05 37.19 21.05 37.19 11.68 37.27 11.68 37.28 12.67 37.27 21.05"/>
      <path class="cls-1" d="M37.19,21.7c-.17,0-.34-.07-.46-.19-.12-.12-.19-.29-.19-.46v-9.37c0-.36.29-.65.65-.65h.08s0,0,0,0c.36,0,.65.29.65.65v1s0,8.38,0,8.38c0,.36-.29.65-.65.65h-.08s0,0,0,0Z"/>
    </g>
    <g>
      <polygon class="cls-1" points="34.6 18.38 34.52 18.38 34.52 18.02 34.52 14.35 34.6 14.35 34.6 18.38"/>
      <path class="cls-1" d="M34.52,19.03c-.36,0-.65-.29-.65-.64v-.36s0-3.67,0-3.67c0-.17.07-.34.19-.46.12-.12.29-.19.46-.19h.09c.36,0,.65.29.65.65v4.03c0,.36-.29.65-.64.65h-.08s0,0,0,0ZM34.6,18.38h0,0Z"/>
    </g>
  </g>
  <g>
    <rect class="cls-1" x="18.64" y="36.97" width=".17" height=".86" transform="translate(-20.96 24.2) rotate(-45)"/>
    <path class="cls-1" d="M18.97,38.41c-.17,0-.33-.06-.46-.19l-.61-.61c-.25-.25-.25-.66,0-.92l.12-.12c.25-.25.66-.25.92,0l.61.61c.25.25.25.66,0,.92l-.12.12c-.13.13-.29.19-.46.19Z"/>
  </g>
  <g>
    <rect class="cls-1" x="24.24" y="42.57" width=".17" height=".86" transform="translate(-23.28 29.79) rotate(-45)"/>
    <path class="cls-1" d="M24.57,44.01c-.17,0-.33-.06-.46-.19l-.61-.61c-.25-.25-.25-.66,0-.92l.12-.12c.25-.25.66-.25.92,0l.61.61c.25.25.25.66,0,.92l-.12.12c-.13.13-.29.19-.46.19Z"/>
  </g>
</svg>