<?xml version="1.0" encoding="UTF-8"?>
<svg id="Capa_1" data-name="Capa 1" xmlns="http://www.w3.org/2000/svg" viewBox="0 0 60 60">
  <defs>
    <style>
      .cls-1 {
        fill: #fff;
      }
    </style>
  </defs>
  <path class="cls-1" d="M26.33,14.77c1.02-.18,1.51.07,2.26.69.84.7,2.85,2.67,3.48,3.51.85,1.13.75,2.17-.11,3.25-2.54,3.2-6.67,6.09-9.29,9.28-2.09,2.54-2.1,6.47.48,8.69,6.61,5.66,13.13-6.01,17.67-9.47,1.09-.83,2.11-.69,3.14.12.8.63,2.88,2.7,3.49,3.5.83,1.07.95,2.2,0,3.26-4.35,3.65-8.45,9.94-13.67,12.26-15.8,7.02-29.89-12.13-17.45-25.65,2.39-2.59,5.98-6.4,8.62-8.62.39-.33.85-.72,1.36-.81ZM26.8,17.04l-4.3,4.39,3.44,3.44,4.39-4.3-3.53-3.53ZM20.77,23.07c-2.71,2.59-5.38,5.02-6.43,8.77-2.91,10.36,6.59,19.64,16.9,16.54,3.67-1.1,5.95-3.68,8.5-6.34l-3.43-3.54c-2.16,2.12-4.07,4.55-7.19,5.22-7.38,1.6-12.75-5.9-9.05-12.42,1.05-1.84,2.85-3.13,4.23-4.7l-3.53-3.53ZM42.34,32.46l-4.39,4.42,3.43,3.42,4.39-4.3-3.43-3.54Z"/>
  <path class="cls-1" d="M41.89,12.71c.68-.11,2.58.83,3.2,1.21,1.63,1,3.26,2.71,4.16,4.4.47.88,1.68,3.41-.16,3.54-1.18.08-1.1-.82-1.45-1.57-1.07-2.31-2.48-3.87-4.8-4.97-.66-.31-1.75-.34-1.89-1.25-.09-.6.3-1.26.93-1.36Z"/>
  <path class="cls-1" d="M40.44,17.65c1.71-.21,4.56,2.75,4.73,4.39.09.95-.9,1.62-1.75,1.14-.44-.25-.87-1.72-1.44-2.3-.6-.61-2.11-1.05-2.36-1.5-.39-.68.04-1.64.82-1.73Z"/>
</svg>