<?xml version="1.0" encoding="UTF-8"?>
<svg id="Capa_1" data-name="Capa 1" xmlns="http://www.w3.org/2000/svg" viewBox="0 0 60 60">
  <defs>
    <style>
      .cls-1 {
        fill: #fff;
      }
    </style>
  </defs>
  <path class="cls-1" d="M47.03,20.05c-3.56,0-6.46-2.9-6.46-6.46s2.9-6.46,6.46-6.46,6.46,2.9,6.46,6.46-2.9,6.46-6.46,6.46ZM47.03,8.39c-2.87,0-5.21,2.34-5.21,5.21s2.34,5.21,5.21,5.21,5.21-2.34,5.21-5.21-2.34-5.21-5.21-5.21Z"/>
  <path class="cls-1" d="M49.35,14.22h-4.64c-.35,0-.63-.28-.63-.63s.28-.63.63-.63h4.64c.35,0,.63.28.63.63s-.28.63-.63.63Z"/>
  <path class="cls-1" d="M11.11,53.37c-3.56,0-6.46-2.9-6.46-6.46s2.9-6.46,6.46-6.46,6.46,2.9,6.46,6.46-2.9,6.46-6.46,6.46ZM11.11,41.7c-2.87,0-5.21,2.34-5.21,5.21s2.34,5.21,5.21,5.21,5.21-2.34,5.21-5.21-2.34-5.21-5.21-5.21Z"/>
  <path class="cls-1" d="M13.44,47.54h-4.64c-.35,0-.63-.28-.63-.63s.28-.63.63-.63h4.64c.35,0,.63.28.63.63s-.28.63-.63.63Z"/>
  <path class="cls-1" d="M11.11,49.86c-.35,0-.63-.28-.63-.63v-4.64c0-.35.28-.63.63-.63s.63.28.63.63v4.64c0,.35-.28.63-.63.63Z"/>
  <path class="cls-1" d="M15.19,43.1c-.11,0-.22-.03-.32-.09-.27-.16-.38-.5-.26-.79l6.95-15.86c.1-.22.32-.37.56-.38.24,0,.47.13.58.36l2.38,4.97,6.25-12.06c.11-.21.32-.34.56-.34.24,0,.45.14.56.35l2.48,5.07,6.34-8.23c.19-.25.54-.32.81-.16.27.16.39.49.27.78l-6.95,16.84c-.09.23-.31.38-.55.39-.24.01-.47-.12-.58-.34l-2.62-5.15-6.27,11.86c-.11.21-.32.33-.55.33h0c-.23,0-.45-.13-.55-.34l-2.71-5.22-5.87,7.75c-.12.16-.31.25-.5.25ZM21.66,33.31s.04,0,.05,0c.21.02.4.14.5.34l2.62,5.04,6.27-11.88c.11-.21.32-.33.55-.33h0c.23,0,.45.13.55.34l2.55,5.01,4.64-11.22-4.08,5.3c-.13.17-.34.26-.56.24-.22-.02-.41-.15-.5-.35l-2.38-4.86-6.26,12.07c-.11.21-.33.34-.57.34-.24,0-.45-.14-.56-.36l-2.34-4.87-4.27,9.74,3.26-4.3c.12-.16.3-.25.5-.25Z"/>
</svg>