<?xml version="1.0" encoding="UTF-8"?>
<svg id="Capa_1" data-name="Capa 1" xmlns="http://www.w3.org/2000/svg" viewBox="0 0 60 60">
  <defs>
    <style>
      .cls-1 {
        fill: #fff;
      }
    </style>
  </defs>
  <path class="cls-1" d="M13.94,22.01c.41-.12.93-.04,1.24.25l11.73,11.7,2.81-2.68c.15-.34-.18-.78-.22-1.19-.27-3,3.64-4.67,5.58-2.33,1.8,2.18.08,5.48-2.68,5.22-.42-.04-.86-.37-1.19-.22l-2.68,2.81,11.92,12.07c.3.8-.34,1.77-1.21,1.5-.52-.16-1.38-1.5-1.73-1.47-2.62,2.14-5.91,3.81-9.34,4.07-13.42,1-22.15-13.54-14.71-24.87.21-.32,1.33-1.62,1.37-1.75.17-.65-1.98-1.26-1.43-2.54.08-.18.37-.52.56-.57ZM17.04,27.11c-.82-.95-1.22.07-1.7.81-7.91,12.06,5.71,26.73,18.35,19.76.42-.23,1.92-1.2,2.17-1.5.12-.15.2-.12,0-.28l-18.81-18.78ZM33.41,29.07c-1-1-2.51.56-1.44,1.51s2.39-.57,1.44-1.51Z"/>
  <path class="cls-1" d="M32.69,9.9c5.08-.35,11.28,2.77,14.65,6.44,2.98,3.24,5.55,8.99,5.24,13.45-.07,1.07-1.5,1.5-2.04.41-.33-.68-.09-1.5-.18-2.22-.93-8.4-7.47-14.94-15.87-15.87-.87-.1-2.33.31-2.78-.75-.29-.68.28-1.42.97-1.47Z"/>
  <path class="cls-1" d="M46.67,30.55c-.14.14-.66.33-.87.32-1.21-.07-.95-2.13-1.11-2.99-.87-4.83-4.43-8.83-9.27-9.91-.77-.17-2.85-.25-3.3-.51-.87-.49-.51-1.75.44-1.92.73-.13,2.37.15,3.15.31,5.42,1.12,9.87,5.63,10.95,11.05.16.83.59,3.07,0,3.66Z"/>
  <path class="cls-1" d="M32.42,21.17c.95-.21,2.65.25,3.56.61,2.33.91,4.25,3.06,4.98,5.46.27.91.89,3.19-.31,3.57-1.66.52-1.4-1.83-1.68-2.85-.53-1.92-2.23-3.71-4.12-4.35-.88-.3-1.65-.21-2.43-.39-1.06-.24-1.07-1.82,0-2.06Z"/>
</svg>