<?xml version="1.0" encoding="UTF-8"?>
<svg id="Capa_1" data-name="Capa 1" xmlns="http://www.w3.org/2000/svg" viewBox="0 0 60 60">
  <defs>
    <style>
      .cls-1 {
        fill: #fff;
      }
    </style>
  </defs>
  <g>
    <path class="cls-1" d="M49.39,49.86c-6.97-10.82-10.47-12.29-10.56-12.38l.17-.18c.09.08,3.61,1.57,10.59,12.42l-.21.13Z"/>
    <path class="cls-1" d="M49.39,50.48s-.09,0-.13-.01c-.16-.03-.3-.13-.39-.27-5.96-9.26-9.37-11.63-10.28-12.14-.07-.04-.12-.07-.19-.13-.12-.11-.19-.27-.19-.43s.06-.32.17-.44l.17-.18c.11-.12.27-.19.43-.19.13,0,.25.03.36.1h.02c1.25.71,4.79,3.34,10.75,12.6.18.29.1.67-.18.85l-.21.13c-.1.06-.22.1-.33.1ZM39.43,36.86s0,0,0,0c0,0,0,0,0,0ZM39.43,36.86s0,0,0,0c0,0,0,0,0,0Z"/>
  </g>
  <g>
    <path class="cls-1" d="M52.78,49.73c-6.97-10.82-11.74-13.77-11.83-13.85l.17-.18c.09.08,4.88,3.05,11.87,13.9l-.21.13Z"/>
    <path class="cls-1" d="M52.78,50.35s-.09,0-.13-.01c-.16-.03-.3-.13-.39-.27-6.03-9.36-10.4-12.8-11.6-13.64-.06-.05-.1-.07-.14-.11-.12-.11-.19-.27-.19-.43s.06-.32.17-.44l.17-.18c.11-.12.27-.19.43-.19,0,0,0,0,.01,0,.14,0,.27.05.38.13l.04.03c1.25.87,5.81,4.46,11.97,14.02.18.29.1.67-.18.85l-.2.13c-.1.06-.22.1-.33.1Z"/>
  </g>
  <g>
    <path class="cls-1" d="M46.22,34.53h-18.25c-.52,0-.95-.43-.95-.95v-11.11c0-.52.43-.95.95-.95h18.25c.5,0,.9.4.9.9v11.21c0,.5-.4.9-.9.9ZM27.97,21.77c-.39,0-.71.32-.71.71v11.11c0,.39.32.71.71.71h18.25c.36,0,.66-.29.66-.66v-11.21c0-.36-.29-.66-.66-.66h-18.25Z"/>
    <path class="cls-1" d="M46.22,35.15h-18.25c-.86,0-1.56-.7-1.56-1.56v-11.11c0-.86.7-1.56,1.56-1.56h18.25c.84,0,1.52.68,1.52,1.52v11.21c0,.84-.68,1.52-1.52,1.52ZM27.97,22.38s-.09.04-.09.09v11.11s.04.09.09.09h18.25s.04-.02.04-.04v-11.21s-.02-.04-.04-.04h-18.25Z"/>
  </g>
  <g>
    <g>
      <path class="cls-1" d="M9.25,23.96h4.78v.24h-4.78c-.28,0-.5.22-.5.5v6.65c0,.28.22.5.5.5h4.77v.24h-4.77c-.41,0-.74-.33-.74-.74v-6.65c0-.41.33-.74.74-.74Z"/>
      <path class="cls-1" d="M14.02,32.71h-4.77c-.75,0-1.36-.61-1.36-1.36v-6.65c0-.75.61-1.36,1.36-1.36h4.78c.34,0,.62.28.62.62v.24c0,.34-.28.62-.62.62h-4.66v6.42h4.65c.34,0,.62.28.62.62v.24c0,.34-.28.62-.62.62Z"/>
    </g>
    <g>
      <polygon class="cls-1" points="24.41 23.96 24.41 32.1 18.95 32.1 18.95 31.85 24.16 31.85 24.16 24.21 18.85 24.21 18.85 23.96 24.41 23.96"/>
      <path class="cls-1" d="M24.41,32.71h-5.46c-.34,0-.62-.28-.62-.62v-.24c0-.34.28-.62.62-.62h4.6v-6.42h-4.69c-.34,0-.62-.28-.62-.62v-.24c0-.34.28-.62.62-.62h5.55c.34,0,.62.28.62.62v8.13c0,.34-.28.62-.62.62Z"/>
    </g>
  </g>
  <g>
    <path class="cls-1" d="M8.75,31.31h-1.68c-.32,0-.59-.26-.59-.59v-5.39c0-.32.26-.59.59-.59h1.68v6.57ZM7.07,24.99c-.19,0-.34.15-.34.34v5.39c0,.19.15.34.34.34h1.43v-6.08h-1.43Z"/>
    <path class="cls-1" d="M8.75,31.93h-1.68c-.66,0-1.2-.54-1.2-1.2v-5.39c0-.66.54-1.2,1.2-1.2h1.68c.34,0,.62.28.62.62v6.57c0,.34-.28.62-.62.62ZM7.35,30.45h.54v-4.85h-.54v4.85Z"/>
  </g>
  <g>
    <path class="cls-1" d="M6.73,30.35l-2.58-1.24v-2.16l2.58-1.24v4.64ZM4.4,29l2.09.81v-3.56l-2.09.81v1.94Z"/>
    <path class="cls-1" d="M6.73,30.96c-.09,0-.18-.02-.27-.06l-2.58-1.24c-.21-.1-.35-.32-.35-.55v-2.16c0-.24.14-.45.35-.55l2.58-1.24c.19-.09.41-.08.59.03.18.11.29.31.29.52v4.64c0,.21-.11.41-.29.52-.1.06-.21.09-.33.09ZM5.01,28.58l.86.33v-1.76l-.86.33v1.1Z"/>
  </g>
  <g>
    <path class="cls-1" d="M4.37,28.59h-1.12v-1.12h1.12v1.12ZM3.49,28.34h.63v-.63h-.63v.63Z"/>
    <rect class="cls-1" x="2.64" y="26.85" width="2.35" height="2.35" rx=".62" ry=".62"/>
  </g>
  <g>
    <path class="cls-1" d="M18.53,29.64h-4.13c-.28,0-.51-.23-.51-.51v-2.25c0-.28.23-.51.51-.51h4.13c.29,0,.52.23.52.52v2.22c0,.29-.23.52-.52.52ZM14.4,26.61c-.15,0-.27.12-.27.27v2.25c0,.15.12.27.27.27h4.13c.15,0,.28-.12.28-.28v-2.22c0-.15-.12-.28-.28-.28h-4.13Z"/>
    <path class="cls-1" d="M18.53,30.25h-4.13c-.62,0-1.12-.5-1.12-1.13v-2.25c0-.62.5-1.13,1.12-1.13h4.13c.63,0,1.14.51,1.14,1.14v2.22c0,.63-.51,1.14-1.14,1.14ZM14.75,28.78h3.44v-1.55h-3.44v1.55Z"/>
  </g>
  <g>
    <path class="cls-1" d="M47.27,33.67h-.39v-11.26h.39c.64,0,2.08.52,2.08,1.16v8.93c0,.64-1.44,1.16-2.08,1.16ZM47.13,33.42h.15c.51,0,1.83-.41,1.83-.92v-8.93c0-.51-1.33-.92-1.83-.92h-.15v10.77Z"/>
    <path class="cls-1" d="M47.27,34.28h-.39c-.34,0-.62-.28-.62-.62v-11.26c0-.34.28-.62.62-.62h.39c.81,0,2.69.6,2.69,1.78v8.93c0,1.17-1.89,1.78-2.69,1.78ZM47.74,23.35v9.37c.3-.09.62-.22.75-.33v-8.72c-.13-.11-.45-.24-.75-.33Z"/>
  </g>
  <g>
    <path class="cls-1" d="M27.27,33.6l-3.1-1.56v-8.02l3.1-1.56v11.14ZM24.41,31.91l2.61,1.23v-10.23l-2.61,1.23v7.76Z"/>
    <path class="cls-1" d="M27.27,34.21c-.09,0-.19-.02-.28-.07l-3.1-1.56c-.21-.1-.34-.32-.34-.55v-8.02c0-.23.13-.45.34-.55l3.1-1.56c.19-.1.42-.09.6.03.18.11.29.31.29.52v11.14c0,.21-.11.41-.29.52-.1.06-.21.09-.32.09ZM25.03,31.52l1.38.65v-8.29l-1.38.65v6.98Z"/>
  </g>
  <g>
    <path class="cls-1" d="M49.11,31.73v-7.57l.24-.02,3.28,7.54-3.52.06ZM49.35,25.45v6.03l2.98-.04-2.98-5.99Z"/>
    <path class="cls-1" d="M49.11,32.35c-.16,0-.32-.06-.43-.18-.12-.12-.18-.27-.18-.44v-7.57c0-.32.24-.58.56-.61l.24-.02c.27-.03.52.12.62.37l3.28,7.54c.08.19.06.41-.05.58s-.3.28-.51.28l-3.52.06h0ZM49.97,28.07v2.79l1.38-.02-1.38-2.77Z"/>
  </g>
  <g>
    <path class="cls-1" d="M18.43,33.3h-3.91c-.35,0-.64-.29-.64-.64v-1.02c0-.16.13-.29.29-.29h4.59c.16,0,.29.13.29.29v1.02c0,.35-.29.64-.64.64ZM14.18,31.6s-.05.02-.05.05v1.02c0,.22.18.39.39.39h3.91c.22,0,.39-.18.39-.39v-1.02s-.02-.05-.05-.05h-4.59Z"/>
    <path class="cls-1" d="M18.43,33.92h-3.91c-.69,0-1.25-.56-1.25-1.25v-1.02c0-.5.41-.91.91-.91h4.59c.5,0,.91.41.91.91v1.02c0,.69-.56,1.25-1.25,1.25ZM14.75,32.44h3.46v-.23h-3.46v.23Z"/>
  </g>
  <g>
    <path class="cls-1" d="M14.53,22.71h3.91c.35,0,.64.29.64.64v1.02c0,.16-.13.29-.29.29h-4.59c-.16,0-.29-.13-.29-.29v-1.02c0-.35.29-.64.64-.64ZM18.77,24.41s.05-.02.05-.05v-1.02c0-.22-.18-.39-.39-.39h-3.91c-.22,0-.39.18-.39.39v1.02s.02.05.05.05h4.59Z"/>
    <path class="cls-1" d="M18.78,25.27h-4.59c-.5,0-.91-.41-.91-.91v-1.02c0-.69.56-1.25,1.25-1.25h3.91c.69,0,1.25.56,1.25,1.25v1.02c0,.5-.41.91-.91.91ZM14.75,23.79h3.46v-.23h-3.46v.23Z"/>
  </g>
  <g>
    <path class="cls-1" d="M36.93,38.82l-.06-.11c-1.54-2.81-3.28-4.19-3.29-4.2l-.28-.22h9.82l-.24.21c-3.05,2.72-5.82,4.24-5.84,4.26l-.11.06ZM33.98,34.53c.54.49,1.85,1.8,3.05,3.95.52-.29,2.85-1.68,5.45-3.95h-8.5Z"/>
    <path class="cls-1" d="M36.93,39.43c-.22,0-.43-.12-.54-.32l-.06-.11c-1.46-2.66-3.07-3.96-3.14-4.02l-.27-.21c-.21-.16-.29-.44-.2-.69s.32-.41.58-.41h9.82c.26,0,.48.16.57.4.09.24.03.51-.17.68l-.24.21c-3.05,2.72-5.84,4.27-5.96,4.34l-.11.06c-.09.05-.19.08-.29.08ZM35.44,35.15c.53.61,1.18,1.44,1.81,2.49.72-.44,2.03-1.29,3.53-2.49h-5.35Z"/>
  </g>
  <g>
    <path class="cls-1" d="M29.96,28.9c-.48,0-.88-.39-.88-.88s.39-.88.88-.88.88.39.88.88-.39.88-.88.88ZM29.96,27.4c-.35,0-.63.28-.63.63s.28.63.63.63.63-.28.63-.63-.28-.63-.63-.63Z"/>
    <path class="cls-1" d="M29.96,29.52c-.82,0-1.49-.67-1.49-1.49s.67-1.49,1.49-1.49,1.49.67,1.49,1.49-.67,1.49-1.49,1.49ZM29.96,28.01s-.02,0-.02.02c0,.02.03.02.03,0,0,0,0-.02-.02-.02Z"/>
  </g>
</svg>