<?xml version="1.0" encoding="UTF-8"?>
<svg id="Capa_1" data-name="Capa 1" xmlns="http://www.w3.org/2000/svg" viewBox="0 0 60 60">
  <defs>
    <style>
      .cls-1 {
        fill: #fff;
      }
    </style>
  </defs>
  <path class="cls-1" d="M56.41,29.66c-.05-.63-.39-1.17-.92-1.48l-27.09-15.82c-.72-.41-1.58-.42-2.3-.03l-2.43,1.23c-.56-.36-1.05-.62-1.86-.62-1.12,0-2.19.82-2.19,1.69v1.12l-1.55.82-9.91,5.57c-.51-.28-1.25-.4-1.85-.4-.46,0-.91.11-1.29.3-.02,0-.04,0-.05.02-.69.26-1.13.76-1.13,1.36v1.14l-.39.22c-.45.25-.75.73-.82,1.26-.07.54.12,1.07.49,1.43.02,0,.03.03.06.04l.67.48v3.39c0,.11.03.21.09.3.04.06.39.56,1.25.67l23.16,16.12c.17.13,2.07,1.48,3.94.82.22-.08.43-.15.61-.22l.44.34v.15c0,.18.08.35.22.45.4.28,1.11.6,1.97.6.74,0,1.57-.23,2.39-.9.13-.11.2-.27.2-.44v-4.29l4.93-3.01c.06.05.13.09.18.13h0c.17.11.38.15.59.15h.15s.05,0,.07,0c.09,0,.17,0,.26-.02.15,0,.31-.05.47-.11.13-.03.24-.08.37-.13.93-.42,1.92-1.34,1.92-2.27,0-.07,0-.13-.02-.19l4.35-2.65.14.08v.26c.02.18.12.35.26.44,1.93,1.25,3.7.37,4.36-.26.12-.11.17-.25.17-.41v-4.71c-.02-.37-.14-.77-.4-1.11.33-.44.49-1.01.44-1.56ZM37.02,49.02c-1.11.78-2.13.45-2.57.24v-.12c0-.17-.08-.34-.21-.44l-.9-.69c-.15-.12-.37-.15-.55-.08-.24.11-.52.21-.84.32-1.36.48-2.9-.66-2.92-.67t-.02,0L5.71,31.37c-.08-.06-.17-.09-.28-.1-.23,0-.38-.07-.46-.12v-2.42l23.61,17.12c.68.46,1.61.71,2.53.71.81,0,1.63-.18,2.27-.55.02,0,.03-.02.04-.03l.58-.41s0,0,0,0c.3.16.7.38,1.25.41.1,0,.19,0,.29,0,.56,0,1.04-.1,1.46-.28v3.3ZM42.53,41.03l-4.13,2.51c0-.18-.03-.36-.06-.51,0-.04-.02-.09-.03-.13l4.33-2.81c-.1.22-.15.45-.15.68,0,.1.02.18.04.26ZM44.65,41.04c-.07.03-.14.06-.2.08-.09.03-.17.05-.24.06-.17.02-.28,0-.31-.02h0s0,0,0,0c-.07-.04-.14-.1-.18-.17-.04-.06-.06-.12-.08-.15,0-.03,0-.06,0-.07,0-.28.49-.91,1.26-1.25.29-.13.52-.16.67-.16.09,0,.14,0,.16.03.02.02.06.06.09.1,0,.08.04.15.09.21,0,.02.02.03.02.03,0,.02,0,.03.02.05,0,0,0,0,0,.02,0,.29-.49.92-1.27,1.26ZM55.26,36.78c-.39.27-1.36.79-2.59.14l-.02-.27c0-.18-.11-.35-.26-.44l-.67-.4c-.17-.11-.41-.11-.58,0l-4.63,2.82s-.03-.03-.04-.04c0,0-.02-.02-.03-.02-.23-.21-.54-.33-.92-.33l6.72-4.35c.57.18,1.83.47,2.72-.18.12-.09.22-.18.3-.29v3.37ZM54.88,30.78h0c-.14.12-.23.3-.21.5,0,.09.02.17.02.26.02.47-.04,1.02-.38,1.27-.52.39-1.59.09-1.92-.05-.17-.07-.36-.06-.51.05l-14.61,9.45c-.15.1-.25.28-.25.46,0,.17.08.33.21.44.1.17.1.78,0,.96-.26.42-.7.84-1.91.77-.3-.02-.52-.15-.76-.27-.1-.06-.2-.11-.31-.15-.18-.11-.42-.11-.6.02l-.83.57c-1.02.57-2.7.52-3.6-.11L3.95,26.64c-.1-.11-.15-.28-.13-.46.02-.19.12-.35.27-.44l1.19-.7c.15-.09.24-.24.27-.41.02-.17-.04-.34-.16-.46-.41-.41-.41-.44-.41-.64,0-.1.17-.31.48-.46t.02,0c.2-.08.45-.13.76-.13.6,0,1.04.19,1.22.39.17.18.45.23.68.11l.17-.1h0s.06-.02.09-.04l10.27-5.77s.08-.05.11-.09h.02s1.62-.86,1.62-.86c.18-.1.29-.28.29-.48v-1.46c0-.15.45-.59,1.08-.59.57,0,.87.2,1.47.59l.05.03c.16.11.38.12.55.03l2.73-1.38c.4-.2.86-.2,1.24,0l25.86,15.09,1.23.72c.28.17.37.44.38.63.04.37-.14.76-.43,1.03Z"/>
  <path class="cls-1" d="M52.65,28.84c-.1-.06-.2-.12-.32-.18l-15.54-9.28-9.03-5.14c-.48-.27-1.09-.28-1.58,0L6.09,25.32c-.34.19-.74.47-.8.95-.06.5.32.86.44.98.02.02.04.04.07.05l23.43,16.32s.02,0,.03.02c.55.34,1.11.5,1.66.5.52,0,1.04-.15,1.54-.47l17.55-10.84,1.27-.81c.15-.09.24-.23.26-.4.04-.38.13-.59.27-.65.03-.02.07-.04.1-.06.57-.41,1.01-.26,1.02-.26.18.08.4.05.55-.08.29-.23.31-.5.3-.65-.04-.46-.46-.72-1.12-1.08ZM50.47,31.22l-1.05.67-17.55,10.84c-.65.43-1.3.42-2.02-.03l-21-14.63,18.39-10.42c.28-.16.62-.16.9,0l22.38,13.35c-.02.08-.04.15-.05.21ZM51.3,29.98c-.06.03-.12.06-.16.1l-22.44-13.37c-.62-.37-1.39-.38-2.01-.02L7.83,27.37l-.25-.17-1.11-.77s0,0-.02,0c.05-.03.11-.07.18-.12l20.07-11.09c.15-.08.35-.08.49,0l9.02,5.13,15.54,9.28s.08.04.12.06c-.19.08-.39.17-.58.31Z"/>
  <path class="cls-1" d="M54.15,31.81c-.02.4-.38.7-.83.7h-.04c-.18,0-.35-.06-.48-.15-.21-.15-.34-.37-.33-.61.02-.41.4-.71.87-.69.17,0,.35.06.48.15.21.15.34.37.33.61Z"/>
  <path class="cls-1" d="M36.35,43.45c-.02.39-.38.69-.83.69h-.04c-.18,0-.35-.06-.48-.15-.21-.15-.34-.38-.33-.61.02-.41.4-.72.87-.7.17,0,.35.06.48.15.21.14.34.37.33.61Z"/>
  <path class="cls-1" d="M7.34,23.93c-.02.4-.38.69-.82.69h-.05c-.17,0-.34-.06-.48-.15-.21-.15-.33-.37-.32-.61,0-.18.09-.35.22-.47.15-.15.39-.23.64-.22.47.02.83.36.81.76Z"/>
  <path class="cls-1" d="M22.69,33.68c0,.46-.44.81-1.01.81s-1.01-.35-1.01-.81.44-.8,1.01-.8,1.01.35,1.01.8Z"/>
  <path class="cls-1" d="M33.59,33.91c0,.45-.44.81-1.01.81s-1.01-.36-1.01-.81.44-.81,1.01-.81,1.01.35,1.01.81Z"/>
  <path class="cls-1" d="M37.28,31.62c0,.46-.44.81-1.01.81s-1.01-.35-1.01-.81.44-.81,1.01-.81,1.01.35,1.01.81Z"/>
  <path class="cls-1" d="M37.39,36.55c0,.46-.44.81-1.01.81s-1.01-.35-1.01-.81.44-.81,1.01-.81,1.01.35,1.01.81Z"/>
  <path class="cls-1" d="M41.21,34.41c0,.46-.44.81-1.01.81s-1.01-.35-1.01-.81.44-.81,1.01-.81,1.01.35,1.01.81Z"/>
  <path class="cls-1" d="M34.55,24.15c0,.46-.43.81-1,.81s-1.01-.35-1.01-.81.43-.81,1.01-.81,1,.35,1,.81Z"/>
  <path class="cls-1" d="M29.11,20.79c0,.46-.44.81-1.01.81s-1.01-.35-1.01-.81.44-.81,1.01-.81,1.01.35,1.01.81Z"/>
  <path class="cls-1" d="M38.58,26.71c0,.45-.44.8-1.01.8s-1.01-.35-1.01-.8.44-.81,1.01-.81,1.01.35,1.01.81Z"/>
  <path class="cls-1" d="M15.8,28.73c0,.46-.44.81-1.01.81s-1.01-.35-1.01-.81.44-.81,1.01-.81,1.01.35,1.01.81Z"/>
  <path class="cls-1" d="M44,42.28h-.08s.1,0,.15,0c-.02,0-.04,0-.07,0Z"/>
  <g>
    <path class="cls-1" d="M54.87,30.79h-.02c-.17.12-.27.31-.25.51,0,.09.03.16.08.24,0-.09,0-.17-.02-.26-.02-.2.07-.39.21-.49Z"/>
    <path class="cls-1" d="M22.88,15.16c-.02.4-.38.7-.82.7h-.05c-.17,0-.34-.06-.48-.15-.21-.14-.33-.37-.32-.61,0-.41.39-.71.86-.69.18,0,.35.06.48.15.21.15.34.38.33.61Z"/>
  </g>
</svg>