<?xml version="1.0" encoding="UTF-8"?>
<svg id="Capa_1" data-name="Capa 1" xmlns="http://www.w3.org/2000/svg" viewBox="0 0 60 60">
  <defs>
    <style>
      .cls-1 {
        fill: #fff;
      }
    </style>
  </defs>
  <g>
    <path class="cls-1" d="M30.85,45.51c-.96,0-1.93-.23-2.6-.69L4.12,28.28h-.01c-.31-.29-.46-.72-.41-1.15.05-.43.3-.8.65-.99l22.82-12.37c.79-.43,1.76-.43,2.54,0l26.04,14.26c.55.3.91.84.95,1.44.04.6-.22,1.16-.72,1.54h-.02s-23,14.04-23,14.04h0c-.59.31-1.35.45-2.11.45ZM4.39,27.94l24.1,16.52c1.08.72,3.07.82,4.26.21l22.98-14.02c.38-.29.58-.71.54-1.16-.03-.46-.3-.85-.73-1.09l-26.04-14.26c-.65-.36-1.47-.36-2.13,0L4.56,26.53c-.23.13-.4.37-.43.66-.04.29.06.57.26.75Z"/>
    <path class="cls-1" d="M30.85,46.09c-1.11,0-2.18-.29-2.93-.79L3.79,28.76s-.04-.03-.06-.05c0,0-.01-.01-.01-.01-.44-.41-.67-1.02-.59-1.64.07-.61.43-1.15.95-1.43l22.81-12.37c.96-.52,2.15-.52,3.1,0l26.04,14.26c.73.4,1.19,1.11,1.25,1.9.06.8-.29,1.55-.95,2.05,0,0-.02.01-.02.02h-.02s-.02.02-.02.03l-23,14.03s-.03.01-.04.02c-.66.34-1.5.52-2.38.52ZM4.76,27.5l24.06,16.49c.9.6,2.63.69,3.65.18l22.93-13.99c.21-.17.31-.39.3-.64-.02-.26-.17-.48-.43-.62l-26.04-14.26c-.48-.26-1.09-.26-1.57,0L4.84,27.04c-.07.04-.12.12-.13.22-.01.09.01.18.06.24Z"/>
  </g>
  <g>
    <path class="cls-1" d="M34.11,40.56c-.5,0-.91-.25-.91-.57s.41-.57.91-.57.91.25.91.57-.41.57-.91.57ZM34.11,39.52c-.45,0-.82.21-.82.48s.37.48.82.48.82-.21.82-.48-.37-.48-.82-.48Z"/>
    <path class="cls-1" d="M34.11,41.14c-.83,0-1.49-.5-1.49-1.14s.65-1.14,1.49-1.14,1.49.5,1.49,1.14-.65,1.14-1.49,1.14Z"/>
  </g>
  <g>
    <path class="cls-1" d="M50.27,30.86c-.5,0-.91-.25-.91-.57s.41-.57.91-.57.91.25.91.57-.41.57-.91.57ZM50.27,29.81c-.45,0-.82.21-.82.48s.37.48.82.48.82-.21.82-.48-.37-.48-.82-.48Z"/>
    <path class="cls-1" d="M50.27,31.44c-.83,0-1.49-.5-1.49-1.14s.65-1.14,1.49-1.14,1.49.5,1.49,1.14-.65,1.14-1.49,1.14Z"/>
  </g>
  <g>
    <path class="cls-1" d="M11.9,26.38c-.5,0-.91-.25-.91-.57s.41-.57.91-.57.91.25.91.57-.41.57-.91.57ZM11.9,25.34c-.45,0-.82.21-.82.48s.37.48.82.48.82-.21.82-.48-.37-.48-.82-.48Z"/>
    <path class="cls-1" d="M11.9,26.96c-.83,0-1.49-.5-1.49-1.14s.65-1.14,1.49-1.14,1.49.5,1.49,1.14-.65,1.14-1.49,1.14Z"/>
  </g>
  <g>
    <path class="cls-1" d="M26.88,18.26c-.5,0-.91-.25-.91-.57s.41-.57.91-.57.91.25.91.57-.41.57-.91.57ZM26.88,17.22c-.45,0-.82.21-.82.48s.37.48.82.48.82-.21.82-.48-.37-.48-.82-.48Z"/>
    <path class="cls-1" d="M26.88,18.84c-.83,0-1.49-.5-1.49-1.14s.65-1.14,1.49-1.14,1.49.5,1.49,1.14-.65,1.14-1.49,1.14Z"/>
  </g>
  <path class="cls-1" d="M38.32,28.45s-.57-.16-.96.08c-.43.26-.31.6-.31.61l.71,1.77-2.38-.54s-.48-.16-.97.14c-.44.27-.26.67-.25.68l2.23,5v-.11c-.02-1.32,1.61-2.81,1.62-2.83l.04-.03h-.06c-.45.07-.86.3-.98.37l-.69-1.7,2.55.52h0c.28-.26.57-.51.91-.73h0s-.56-1.59-.56-1.59l2.74.67c-2.77,1.47-4.12,3.02-4.76,4.07-.7,1.15-.72,1.95-.72,1.95v.1s.05-.1.05-.1c.81-1.67,3.24-3.39,5.09-4.52,1.96-1.19,3.72-2,3.74-2.01l.04-.02-7.1-1.77Z"/>
</svg>