<?xml version="1.0" encoding="UTF-8"?>
<svg id="Capa_1" data-name="Capa 1" xmlns="http://www.w3.org/2000/svg" viewBox="0 0 60 60">
  <defs>
    <style>
      .cls-1 {
        fill: #fff;
      }
    </style>
  </defs>
  <path class="cls-1" d="M46.8,44.59h-2.85c-.5,0-.95-.29-1.17-.74l-1.15-2.39h-22.1l-1.15,2.39c-.22.45-.67.74-1.17.74h-3.17c-.72,0-1.3-.58-1.3-1.3v-26.83c0-.72.58-1.3,1.3-1.3h24.66c.34,0,.68.14.92.38l8.11,8.11c.24.24.38.57.38.92v18.72c0,.72-.58,1.3-1.3,1.3ZM44.77,41.98h.73v-16.88l-7.35-7.35H15.33v24.23h1.06l1.15-2.39c.22-.45.67-.74,1.17-.74h23.73c.5,0,.95.29,1.17.74l1.15,2.39Z"/>
  <path class="cls-1" d="M21.26,47.03c-.72,0-1.3-.58-1.3-1.3v-5.19c0-.72.58-1.3,1.3-1.3s1.3.58,1.3,1.3v5.19c0,.72-.58,1.3-1.3,1.3Z"/>
  <path class="cls-1" d="M27.29,47.03c-.72,0-1.3-.58-1.3-1.3v-5.19c0-.72.58-1.3,1.3-1.3s1.3.58,1.3,1.3v5.19c0,.72-.58,1.3-1.3,1.3Z"/>
  <path class="cls-1" d="M33.75,47.03c-.72,0-1.3-.58-1.3-1.3v-5.19c0-.72.58-1.3,1.3-1.3s1.3.58,1.3,1.3v5.19c0,.72-.58,1.3-1.3,1.3Z"/>
  <path class="cls-1" d="M39.67,47.03c-.72,0-1.3-.58-1.3-1.3v-5.19c0-.72.58-1.3,1.3-1.3s1.3.58,1.3,1.3v5.19c0,.72-.58,1.3-1.3,1.3Z"/>
  <path class="cls-1" d="M24.71,34.47h-5.18c-.72,0-1.3-.58-1.3-1.3s.58-1.3,1.3-1.3h5.18c.72,0,1.3.58,1.3,1.3s-.58,1.3-1.3,1.3Z"/>
  <path class="cls-1" d="M41.81,34.47h-5.18c-.72,0-1.3-.58-1.3-1.3s.58-1.3,1.3-1.3h5.18c.72,0,1.3.58,1.3,1.3s-.58,1.3-1.3,1.3Z"/>
  <path class="cls-1" d="M39.22,37.06c-.72,0-1.3-.58-1.3-1.3v-5.18c0-.72.58-1.3,1.3-1.3s1.3.58,1.3,1.3v5.18c0,.72-.58,1.3-1.3,1.3Z"/>
</svg>